<?xml version="1.0" encoding="UTF-8"?>
<svg id="Layer_2" data-name="Layer 2" xmlns="http://www.w3.org/2000/svg" viewBox="0 0 262.19 105.03">
  <defs>
    <style>
      .cls-1 {
        fill: #231f20;
      }
    </style>
  </defs>
  <g id="Layer_1-2" data-name="Layer 1">
    <g id="Generative_Object" data-name="Generative Object">
      <g>
        <path class="cls-1" d="M97.6.12c17.91-2.44,27.4,33.75,30.18,46.64,1.64,7.59,7.44,47.59,4.06,52.25-1.95,2.69-3.63-3.75-4.06-5.01-4.73-14.03-12.7-64.13-24.22-70.98-9.12-5.42-16.12,12.9-18.73,19.21-4.48,10.83-13.84,45.76-23.26,50.94-8.14,4.48-25.82-7.58-36.26-8.11s-14.14,3.66-22.43,5.49c-5.86,1.29-1.2-7.18.12-9.42,9.67-16.37,22.27-19.68,39.72-13.96,4.27,1.4,11.99,6.13,16.22,3.82,5.22-2.85,14.49-34.94,17.54-42.35,3.23-7.86,11.71-27.23,21.11-28.51Z"/>
        <path class="cls-1" d="M97.84,3.22c14.34-2.06,23.03,26.84,25.65,37.34,3.91,15.67,5.42,31.94,5.85,48.07-3.2-11.56-5.42-23.42-8.71-34.95-4.08-14.34-15.81-53.38-32.92-23.86-6.41,11.06-19.14,55.57-26.6,60.24-6.16,3.86-20.55-4.76-27.44-6.44-10.43-2.55-20.14-1.01-29.94,2.98,6.5-13.05,15.79-21.77,31.37-18.73,8.06,1.57,19.26,10.17,26.48,4.29,6.31-5.14,12.69-30.47,16.1-39.25,2.89-7.43,11.49-28.46,20.16-29.7Z"/>
      </g>
      <g>
        <path class="cls-1" d="M131.03,5.74c1.73-.43,3,4.65,3.46,6.08,5.72,17.74,7.79,37.25,14.55,54.87,17.52,45.69,32.18-16.3,38.17-31.73,2.46-6.33,8.84-22.91,16.34-23.98,10.19-1.45,24.06,10.2,38.65,9.07,6.49-.5,13.41-5.06,17.66-5.49,4.93-.5.69,7.23-.6,9.42-8.3,14.19-20.48,19.61-36.38,15.15-5.21-1.46-15.62-7.61-20.28-4.53-5.05,3.33-13.02,31.76-15.87,39.01-4.61,11.73-15.49,40.61-32.33,28.51-17.39-12.5-26.35-70.28-24.93-90.54.08-1.1.42-5.56,1.55-5.85Z"/>
        <path class="cls-1" d="M203.32,14.09c6.53-1.1,17.1,5.11,23.62,6.92,10.72,2.97,21.08,1.87,31.25-2.39.51.48-.36,1.78-.6,2.27-5.13,10.29-14.94,17.98-26.84,17.06-15.47-1.19-26.47-17.53-35.91,3.94-5.61,12.76-15.38,54.16-28.51,59.53-13.36,5.46-22.55-19.44-25.41-28.75-5.43-17.63-7.45-36.22-8.11-54.64l1.67,4.77c4.37,15.91,7.04,33.86,13.84,48.91,19.3,42.7,35.29-20.21,41.04-34.59,2-5,8.6-22.12,13.96-23.02Z"/>
      </g>
    </g>
  </g>
</svg>